<svg id="Capa_1" data-name="Capa 1" xmlns="http://www.w3.org/2000/svg" viewBox="0 0 252.06 128.99"><defs><style>.cls-1{fill:#5aa9ff;}</style></defs><path class="cls-1" d="M85.51,103.46h8.73a1.83,1.83,0,0,0,1.82-1.83V58.1a1.83,1.83,0,0,0-1.82-1.83H85.51a1.82,1.82,0,0,0-1.82,1.83v43.53a1.82,1.82,0,0,0,1.82,1.83"/><path class="cls-1" d="M89.87,38.43a7.2,7.2,0,1,0-.19,14.4h.1a7.12,7.12,0,0,0,7.34-7.26,7,7,0,0,0-7.25-7.14"/><path class="cls-1" d="M107.15,38.43a7.2,7.2,0,1,0-.18,14.4h.08a7.15,7.15,0,0,0,7.38-7.26,7.06,7.06,0,0,0-7.28-7.14"/><path class="cls-1" d="M102.13,103.46h10.05a1.16,1.16,0,0,0,1.16-1.16V57.43a1.17,1.17,0,0,0-1.16-1.16H102.8A1.82,1.82,0,0,0,101,58.1v44.2a1.15,1.15,0,0,0,1.15,1.16"/><path class="cls-1" d="M150.11,57.29a1.07,1.07,0,0,1-1.65.84,18.39,18.39,0,0,0-10.33-2.84c-11,0-22.08,8.54-22.08,24.85,0,13.2,9,23.18,20.87,23.18a20,20,0,0,0,10.17-2.65,1.06,1.06,0,0,1,1.59,1.06c-.88,6.52-4.73,9.69-11.76,9.69a21.65,21.65,0,0,1-11.66-3.1l-1.22-.78a1.07,1.07,0,0,0-1.59.56l-2.73,8.25a1.05,1.05,0,0,0,.43,1.23l.75.48c3.68,2.39,9.72,3.9,15.77,3.9,4.11,0,11.84-.74,17.51-5.7,4.84-4.41,7-11,7-21.27V70.15c0-5.45.1-8.66.36-11.48l.12-1.23a1.08,1.08,0,0,0-1.07-1.17h-9.41a1.07,1.07,0,0,0-1.06,1M139.3,93c-7.94,0-10.77-7.08-10.77-13.17,0-8.54,4.27-14,10.86-14a9.16,9.16,0,0,1,9.06,6.76v0a8.41,8.41,0,0,1,.34,2.73V83a10.3,10.3,0,0,1-.51,3.39l0,.1a9.28,9.28,0,0,1-9,6.5"/><path class="cls-1" d="M187.77,55.29c-14.09,0-24,10.27-24,24.94,0,7.1,2.33,13.18,6.72,17.62A23,23,0,0,0,187,104.46h.11c11.54,0,24-7.84,24-25,0-14.19-9.59-24.12-23.32-24.12m-.45,38.89h-.09c-6.34,0-10.94-6-10.94-14.22,0-7.19,3.45-14.4,11.21-14.4,8.64,0,10.95,9.25,10.95,14.13,0,8.39-4.69,14.49-11.13,14.49"/><path class="cls-1" d="M71.12,39.46s-6.71-6.66-5.78-4.91c2.48,4.5,3.87,9.15,6.34,13.12,0,0,2.06-33.22,34.17-35.74,19.12-1.49,29.91,10.65,32,22.33,4.8-1,24.57-4.66,38.51,12.86,7.56-3.63,34.63-3.23,39.6,19.72-5-29-39.65-23.32-38.52-22.13,0,0-12.1-16.07-35.76-12.66,0,0-4.74-23.48-37-22.32,0,0-29.79,2.75-33.59,29.73"/><path class="cls-1" d="M68.14,72.72q-6.73-3-13.22-6.44c-5.21-2.72-5.26-7.24-.67-10.74,2.68-2,5.72-2.2,8.65-3,4.47-1.18,5-1.91,3.22-5.93-.57-1.25-1.14-2.5-1.7-3.78s-1.12-2.28-1.63-3.43a14,14,0,0,0-1.43-3,.37.37,0,0,0-.17-.18c-.78-.65-2.51-.29-3.43-.05-2.41.65-4.8,1.69-7.15,2.57C40.94,42.27,34.87,49.35,34,59.48c-.64,8.44,2.48,18.09,13,22.45,4.72,2,9.8,3.29,14,6.67s5,7.41,1.38,11.4c-4,4.37-9.36,4.63-14.63,5-2.66.2-4.1.29-2.87,3.78a92.84,92.84,0,0,1,2.55,10.11c.51,2.35,1.59,2.64,3.45,2.54a35.36,35.36,0,0,0,23.37-9.89c10.76-10.15,8.36-32.33-6.17-38.79"/></svg>