<svg id="Capa_1" data-name="Capa 1" xmlns="http://www.w3.org/2000/svg" viewBox="0 0 252.06 200.03"><defs><style>.cls-1{fill:#5aa9ff;}</style></defs><path class="cls-1" d="M86.08,103.46H94.8a1.82,1.82,0,0,0,1.82-1.83V58.1a1.82,1.82,0,0,0-1.82-1.83H86.08a1.82,1.82,0,0,0-1.83,1.83v43.53a1.82,1.82,0,0,0,1.83,1.83"/><path class="cls-1" d="M90.43,38.43a7.2,7.2,0,1,0-.19,14.4h.1a7.13,7.13,0,0,0,7.35-7.26,7,7,0,0,0-7.26-7.14"/><path class="cls-1" d="M107.71,38.43a7.2,7.2,0,1,0-.18,14.4h.08A7.15,7.15,0,0,0,115,45.57a7.06,7.06,0,0,0-7.28-7.14"/><path class="cls-1" d="M102.7,103.46h10a1.16,1.16,0,0,0,1.16-1.16V57.43a1.17,1.17,0,0,0-1.16-1.16h-9.38a1.82,1.82,0,0,0-1.82,1.83v44.2a1.15,1.15,0,0,0,1.16,1.16"/><path class="cls-1" d="M150.67,57.29a1.06,1.06,0,0,1-1.65.84,18.36,18.36,0,0,0-10.33-2.84c-11,0-22.08,8.54-22.08,24.85,0,13.2,9,23.18,20.87,23.18a20,20,0,0,0,10.17-2.65,1.06,1.06,0,0,1,1.59,1.06c-.88,6.52-4.73,9.69-11.76,9.69a21.65,21.65,0,0,1-11.66-3.1l-1.22-.78a1.07,1.07,0,0,0-1.59.56l-2.73,8.25a1.06,1.06,0,0,0,.43,1.23l.75.48c3.68,2.39,9.72,3.9,15.77,3.9,4.11,0,11.84-.74,17.52-5.7,4.84-4.41,7-11,7-21.27V70.15c0-5.45.1-8.66.37-11.48l.11-1.23a1.06,1.06,0,0,0-1.06-1.17h-9.41a1.07,1.07,0,0,0-1.07,1M139.87,93c-8,0-10.78-7.08-10.78-13.17,0-8.54,4.27-14,10.86-14A9.16,9.16,0,0,1,149,72.5v0a8.41,8.41,0,0,1,.34,2.73V83a10.3,10.3,0,0,1-.51,3.39l0,.1a9.27,9.27,0,0,1-8.95,6.5"/><path class="cls-1" d="M188.34,55.29c-14.1,0-24,10.27-24,24.94,0,7.1,2.32,13.18,6.71,17.62a23,23,0,0,0,16.49,6.61h.11c11.54,0,24-7.84,24-25,0-14.19-9.59-24.12-23.31-24.12m-.46,38.89h-.08c-6.35,0-10.94-6-10.94-14.22,0-7.19,3.44-14.4,11.2-14.4,8.65,0,10.95,9.25,10.95,14.13,0,8.39-4.69,14.49-11.13,14.49"/><path class="cls-1" d="M71.68,39.46S65,32.8,65.9,34.55c2.48,4.5,3.87,9.15,6.35,13.12,0,0,2.06-33.22,34.16-35.74,19.12-1.49,29.91,10.65,32,22.33,4.8-1,24.57-4.66,38.51,12.86,7.56-3.63,34.63-3.23,39.6,19.72-5-29-39.64-23.32-38.52-22.13,0,0-12.1-16.07-35.76-12.66,0,0-4.74-23.48-37-22.32,0,0-29.79,2.75-33.59,29.73"/><path class="cls-1" d="M68.7,72.72q-6.74-3-13.22-6.44c-5.21-2.72-5.26-7.24-.66-10.74,2.67-2,5.71-2.2,8.64-3,4.47-1.18,5-1.91,3.22-5.93-.57-1.25-1.13-2.5-1.7-3.78s-1.12-2.28-1.63-3.43a14,14,0,0,0-1.43-3,.4.4,0,0,0-.16-.18c-.79-.65-2.52-.29-3.43-.05-2.42.65-4.81,1.69-7.15,2.57C41.5,42.27,35.43,49.35,34.61,59.48c-.65,8.44,2.47,18.09,13,22.45,4.72,2,9.8,3.29,14,6.67S66.64,96,63,100c-4,4.37-9.36,4.63-14.63,5-2.66.2-4.1.29-2.87,3.78a90.59,90.59,0,0,1,2.55,10.11c.51,2.35,1.59,2.64,3.45,2.54a35.36,35.36,0,0,0,23.37-9.89c10.77-10.15,8.36-32.33-6.17-38.79"/><path class="cls-1" d="M71.73,132.63c0,7.48-7,8.68-11.72,8.68a54.15,54.15,0,0,1-5.7-.35V124.19a41.66,41.66,0,0,1,6.5-.43C67.26,123.76,71.73,126.94,71.73,132.63Zm-10.17,3.9c2.53,0,3.6-1.77,3.6-4.2s-1.27-3.94-3.55-3.94c-.25,0-.6,0-.8,0v8.1C61,136.53,61.34,136.53,61.56,136.53Z"/><path class="cls-1" d="M87.56,133.16V141h-6.3v-1.22a5.48,5.48,0,0,1-3.87,1.55,4.3,4.3,0,0,1-4.5-4.25c0-2.83,2.07-4.28,5.7-4.28a18,18,0,0,1,2.6.25v-.12c0-.8-.73-1.23-2.33-1.23a12.29,12.29,0,0,0-4.15.73l-.87-3.95a18.25,18.25,0,0,1,6.37-1.05C85.14,127.41,87.56,129.39,87.56,133.16Zm-6.22,2.45a5,5,0,0,0-.93-.08c-1,0-1.55.48-1.55,1.23a1,1,0,0,0,1.1,1c1,0,1.38-.8,1.38-1.72Z"/><path class="cls-1" d="M89.21,127.74h1.38v-3.08H97v3.08h2.3v4.37H97v3.52a1.39,1.39,0,0,0,1.55,1.43c.23,0,.48,0,.68-.05l.5,3.52a11.6,11.6,0,0,1-4.28.78c-2.82,0-4.82-1-4.82-4.13v-5.07H89.21Z"/><path class="cls-1" d="M115.41,133.16V141h-6.3v-1.22a5.48,5.48,0,0,1-3.87,1.55,4.3,4.3,0,0,1-4.5-4.25c0-2.83,2.07-4.28,5.7-4.28a18,18,0,0,1,2.6.25v-.12c0-.8-.73-1.23-2.33-1.23a12.29,12.29,0,0,0-4.15.73l-.87-3.95a18.25,18.25,0,0,1,6.37-1.05C113,127.41,115.41,129.39,115.41,133.16Zm-6.22,2.45a5,5,0,0,0-.93-.08c-1,0-1.55.48-1.55,1.23a1,1,0,0,0,1.1,1c1,0,1.38-.8,1.38-1.72Z"/><path class="cls-1" d="M131.71,135.31c0,4.15-2.9,6-7.35,6a18.07,18.07,0,0,1-7-1.28l1-4.57a11.83,11.83,0,0,0,5.58,1.37c1.07,0,1.4-.27,1.4-.62,0-1.25-8-.23-8-6.62,0-3.78,2.9-5.83,7.2-5.83a23.19,23.19,0,0,1,6.47,1l-1,4.55a13,13,0,0,0-5-1c-.85,0-1.4.12-1.4.62C123.64,130.14,131.71,129.34,131.71,135.31Z"/><path class="cls-1" d="M157.18,132v9h-6.37v-7.57a1.14,1.14,0,0,0-1.1-1.23,1.17,1.17,0,0,0-1.13,1.23V141h-6.37v-7.57a1.14,1.14,0,0,0-1.1-1.23,1.16,1.16,0,0,0-1.12,1.23V141h-6.38V127.74h6.1v1.35a5.75,5.75,0,0,1,4.17-1.68,4.66,4.66,0,0,1,3.88,1.93,6.26,6.26,0,0,1,4.72-1.93A4.53,4.53,0,0,1,157.18,132Z"/><path class="cls-1" d="M173.46,133.16V141h-6.3v-1.22a5.48,5.48,0,0,1-3.87,1.55,4.3,4.3,0,0,1-4.5-4.25c0-2.83,2.07-4.28,5.7-4.28a18,18,0,0,1,2.6.25v-.12c0-.8-.73-1.23-2.33-1.23a12.29,12.29,0,0,0-4.15.73l-.87-3.95a18.25,18.25,0,0,1,6.37-1.05C171,127.41,173.46,129.39,173.46,133.16Zm-6.22,2.45a5,5,0,0,0-.93-.08c-1,0-1.55.48-1.55,1.23a1,1,0,0,0,1.1,1c1,0,1.38-.8,1.38-1.72Z"/><path class="cls-1" d="M182.16,136V141h-6.37V127.74h6v2.35c.5-1.1,1.42-3.2,4.34-2.55v4.94C183.61,132.16,182.16,133.43,182.16,136Z"/><path class="cls-1" d="M187.14,127.74h1.37v-3.08h6.37v3.08h2.3v4.37h-2.3v3.52a1.39,1.39,0,0,0,1.55,1.43c.23,0,.48,0,.68-.05l.5,3.52a11.59,11.59,0,0,1-4.27.78c-2.83,0-4.83-1-4.83-4.13v-5.07h-1.37Z"/></svg>