<svg id="Capa_1" data-name="Capa 1" xmlns="http://www.w3.org/2000/svg" viewBox="0 0 209.99 131.99"><defs><style>.cls-1{fill:#fff;}</style></defs><path class="cls-1" d="M62,103.46h8.73a1.83,1.83,0,0,0,1.82-1.83V58.1a1.83,1.83,0,0,0-1.82-1.83H62a1.83,1.83,0,0,0-1.83,1.83v43.53A1.83,1.83,0,0,0,62,103.46"/><path class="cls-1" d="M66.38,38.43a7.2,7.2,0,1,0-.19,14.4h.1a7.12,7.12,0,0,0,7.34-7.26,7,7,0,0,0-7.25-7.14"/><path class="cls-1" d="M83.66,38.43a7.2,7.2,0,1,0-.18,14.4h.08a7.14,7.14,0,0,0,7.37-7.26,7.05,7.05,0,0,0-7.27-7.14"/><path class="cls-1" d="M78.64,103.46h10a1.16,1.16,0,0,0,1.16-1.16V57.43a1.17,1.17,0,0,0-1.16-1.16H79.31a1.83,1.83,0,0,0-1.83,1.83v44.2a1.16,1.16,0,0,0,1.16,1.16"/><path class="cls-1" d="M126.62,57.29a1.07,1.07,0,0,1-1.65.84,18.4,18.4,0,0,0-10.34-2.84c-11,0-22.07,8.54-22.07,24.85,0,13.2,9,23.18,20.87,23.18a20,20,0,0,0,10.17-2.65,1.06,1.06,0,0,1,1.59,1.06c-.88,6.52-4.73,9.69-11.76,9.69a21.73,21.73,0,0,1-11.67-3.1l-1.22-.78a1.06,1.06,0,0,0-1.58.56l-2.73,8.25a1.05,1.05,0,0,0,.43,1.23l.74.48c3.68,2.39,9.73,3.9,15.78,3.9,4.11,0,11.83-.74,17.51-5.7,4.84-4.41,7-11,7-21.27V70.15c0-5.45.1-8.66.36-11.48l.12-1.23a1.08,1.08,0,0,0-1.07-1.17h-9.41a1.07,1.07,0,0,0-1.06,1M115.81,93C107.87,93,105,85.87,105,79.78c0-8.54,4.26-14,10.86-14A9.16,9.16,0,0,1,125,72.5v0a8.41,8.41,0,0,1,.34,2.73V83a10.3,10.3,0,0,1-.51,3.39l0,.1a9.28,9.28,0,0,1-9,6.5"/><path class="cls-1" d="M164.28,55.29c-14.09,0-24,10.27-24,24.94,0,7.1,2.33,13.18,6.72,17.62a23,23,0,0,0,16.49,6.61h.11c11.54,0,24-7.84,24-25,0-14.19-9.59-24.12-23.32-24.12m-.46,38.89h-.08c-6.34,0-10.94-6-10.94-14.22,0-7.19,3.45-14.4,11.21-14.4,8.64,0,11,9.25,11,14.13,0,8.39-4.69,14.49-11.14,14.49"/><path class="cls-1" d="M47.63,39.46s-6.71-6.66-5.78-4.91c2.48,4.5,3.87,9.15,6.34,13.12,0,0,2.06-33.22,34.16-35.74,19.13-1.49,29.92,10.65,32,22.33,4.79-1,24.57-4.66,38.51,12.86,7.56-3.63,34.63-3.23,39.59,19.72-5-29-39.64-23.32-38.51-22.13,0,0-12.11-16.07-35.76-12.66,0,0-4.74-23.48-37-22.32,0,0-29.79,2.75-33.59,29.73"/><path class="cls-1" d="M44.64,72.72q-6.72-3-13.21-6.44c-5.21-2.72-5.26-7.24-.67-10.74,2.68-2,5.72-2.2,8.65-3,4.47-1.18,5-1.91,3.22-5.93-.57-1.25-1.14-2.5-1.7-3.78s-1.12-2.28-1.64-3.43a13.46,13.46,0,0,0-1.42-3,.42.42,0,0,0-.17-.18c-.78-.65-2.51-.29-3.43-.05-2.41.65-4.8,1.69-7.15,2.57-9.67,3.54-15.74,10.62-16.57,20.75-.64,8.44,2.48,18.09,13,22.45,4.72,2,9.8,3.29,14,6.67s5,7.41,1.38,11.4c-4,4.37-9.35,4.63-14.62,5-2.66.2-4.1.29-2.87,3.78A90.56,90.56,0,0,1,24,118.86c.52,2.35,1.6,2.64,3.45,2.54a35.36,35.36,0,0,0,23.38-9.89c10.76-10.15,8.36-32.33-6.18-38.79"/></svg>